<?xml version="1.0" encoding="UTF-8"?>
<svg version="1.1" xmlns="http://www.w3.org/2000/svg" width="400" height="400">
<path d="M0 0 C132 0 264 0 400 0 C400 132 400 264 400 400 C268 400 136 400 0 400 C0 268 0 136 0 0 Z " fill="#38384A" transform="translate(0,0)"/>
<path d="M0 0 C12.21407823 10.59274041 17.59843076 22.98430759 19.1875 38.875 C8.9575 38.875 -1.2725 38.875 -11.8125 38.875 C-12.8025 34.915 -12.8025 34.915 -13.8125 30.875 C-19.02024472 20.2439033 -27.84012559 13.76003331 -38.8125 9.875 C-41.72125267 9.2340884 -43.8951911 8.95077426 -46.8125 8.875 C-47.9984375 8.813125 -49.184375 8.75125 -50.40625 8.6875 C-61.96125945 8.24799119 -72.98714891 9.59670509 -82.16796875 17.30859375 C-87.7557145 22.63088839 -91.81519909 28.32181951 -92.2109375 36.21484375 C-92.21880346 37.74739556 -92.21077689 39.28010478 -92.1875 40.8125 C-92.19910156 41.57240234 -92.21070313 42.33230469 -92.22265625 43.11523438 C-92.18602192 50.26503388 -90.48383028 56.97717288 -85.47265625 62.3828125 C-73.00915543 73.5853003 -55.42611554 77.21294662 -39.68798828 81.60791016 C-18.72162987 87.51529959 2.61638588 93.82332769 15.19921875 112.9296875 C22.46088844 126.4683937 23.62631647 144.23680921 19.28515625 158.9765625 C12.67628516 176.42774524 1.06387221 187.84072925 -15.5546875 195.69921875 C-35.15268454 204.3998007 -59.75381739 204.49942072 -80.046875 197.80859375 C-96.35823324 191.40659693 -110.5569221 181.85613445 -118.3203125 165.74609375 C-121.89015641 157.43345722 -122.8125 152.17245455 -122.8125 142.875 C-112.9125 142.875 -103.0125 142.875 -92.8125 142.875 C-92.1525 145.845 -91.4925 148.815 -90.8125 151.875 C-86.85821768 162.21917331 -81.41535661 168.4469903 -71.69140625 173.61328125 C-64.67080766 176.69015146 -58.48678921 177.18645961 -50.9375 177.125 C-49.99519531 177.13273438 -49.05289063 177.14046875 -48.08203125 177.1484375 C-36.53400004 177.11649274 -27.87369103 174.20800359 -18.0625 168.1875 C-10.83667061 160.76095313 -7.78715199 152.20546742 -7.4375 142 C-7.58514872 133.29795381 -10.08315471 126.88932421 -16.00390625 120.49609375 C-27.18641567 110.47289416 -42.63048713 107.31451875 -56.72143555 103.60180664 C-103.94956097 91.06638383 -103.94956097 91.06638383 -116.33984375 69.859375 C-122.96035845 56.44273513 -124.25660912 40.32307531 -120.25 25.875 C-113.90470422 8.53119154 -102.94194798 -1.77652562 -86.625 -9.8125 C-58.36045993 -21.76752956 -24.66424465 -18.62611007 0 0 Z " fill="#FCFCFD" transform="translate(250.8125,109.125)"/>
</svg>
